<svg class="main-svg" xmlns="http://www.w3.org/2000/svg" xmlns:xlink="http://www.w3.org/1999/xlink" width="1000" height="900" style="" viewBox="0 0 1000 900"><rect x="0" y="0" width="1000" height="900" style="fill: rgb(255, 255, 255); fill-opacity: 1;"/><defs id="defs-6d3518"><g class="clips"><clipPath id="clip6d3518polar-for-traces"><path d="M350,0A350,350 0,1,0 -350,-4.2862637970157365e-14A350,350 0,1,0 350,8.572527594031473e-14Z" transform="translate(350,350)"/></clipPath></g><g class="gradients"/><g class="patterns"/></defs><g class="bglayer"/><g class="layer-below"><g class="imagelayer"/><g class="shapelayer"/></g><g class="cartesianlayer"/><g class="polarlayer"><g class="polar"><g class="polarsublayer draglayer"/><g class="polarsublayer plotbg"><path d="M350,0A350,350 0,1,0 -350,-4.2862637970157365e-14A350,350 0,1,0 350,8.572527594031473e-14Z" transform="translate(500,450)" style="fill: rgb(255, 255, 255); fill-opacity: 0;"/></g><g class="polarsublayer backplot"><g class="maplayer"/></g><g class="polarsublayer angular-grid" style="fill: none;"><path class="angularaxisgrid" d="M500,450L850,450" style="stroke: rgb(230, 230, 230); stroke-opacity: 1; stroke-width: 1px;"/><path class="angularaxisgrid" d="M500,450L823.3578363789504,316.06079867221854" style="stroke: rgb(230, 230, 230); stroke-opacity: 1; stroke-width: 1px;"/><path class="angularaxisgrid" d="M500,450L747.4873734152916,202.51262658470839" style="stroke: rgb(230, 230, 230); stroke-opacity: 1; stroke-width: 1px;"/><path class="angularaxisgrid" d="M500,450L633.9392013277815,126.64216362104963" style="stroke: rgb(230, 230, 230); stroke-opacity: 1; stroke-width: 1px;"/><path class="angularaxisgrid" d="M500,450L500,100" style="stroke: rgb(230, 230, 230); stroke-opacity: 1; stroke-width: 1px;"/><path class="angularaxisgrid" d="M500,450L366.0607986722186,126.64216362104963" style="stroke: rgb(230, 230, 230); stroke-opacity: 1; stroke-width: 1px;"/><path class="angularaxisgrid" d="M500,450L252.51262658470839,202.51262658470836" style="stroke: rgb(230, 230, 230); stroke-opacity: 1; stroke-width: 1px;"/><path class="angularaxisgrid" d="M500,450L176.64216362104963,316.06079867221854" style="stroke: rgb(230, 230, 230); stroke-opacity: 1; stroke-width: 1px;"/><path class="angularaxisgrid" d="M500,450L150,449.99999999999994" style="stroke: rgb(230, 230, 230); stroke-opacity: 1; stroke-width: 1px;"/><path class="angularaxisgrid" d="M500,450L176.64216362104958,583.9392013277813" style="stroke: rgb(230, 230, 230); stroke-opacity: 1; stroke-width: 1px;"/><path class="angularaxisgrid" d="M500,450L252.5126265847083,697.4873734152916" style="stroke: rgb(230, 230, 230); stroke-opacity: 1; stroke-width: 1px;"/><path class="angularaxisgrid" d="M500,450L366.06079867221837,773.3578363789502" style="stroke: rgb(230, 230, 230); stroke-opacity: 1; stroke-width: 1px;"/><path class="angularaxisgrid" d="M500,450L499.99999999999994,800" style="stroke: rgb(230, 230, 230); stroke-opacity: 1; stroke-width: 1px;"/><path class="angularaxisgrid" d="M500,450L633.9392013277815,773.3578363789503" style="stroke: rgb(230, 230, 230); stroke-opacity: 1; stroke-width: 1px;"/><path class="angularaxisgrid" d="M500,450L747.4873734152916,697.4873734152917" style="stroke: rgb(230, 230, 230); stroke-opacity: 1; stroke-width: 1px;"/><path class="angularaxisgrid" d="M500,450L823.3578363789502,583.9392013277816" style="stroke: rgb(230, 230, 230); stroke-opacity: 1; stroke-width: 1px;"/></g><g class="polarsublayer radial-grid" transform="translate(500,450)" style="fill: none;"><path class="xgrid" d="M70,0A70,70 0,1,0 -70,-8.572527594031473e-15A70,70 0,1,0 70,1.7145055188062946e-14Z" style="stroke: rgb(230, 230, 230); stroke-opacity: 1; stroke-width: 1px;"/><path class="xgrid" d="M140,0A140,140 0,1,0 -140,-1.7145055188062946e-14A140,140 0,1,0 140,3.429011037612589e-14Z" style="stroke: rgb(230, 230, 230); stroke-opacity: 1; stroke-width: 1px;"/><path class="xgrid" d="M210,0A210,210 0,1,0 -210,-2.5717582782094416e-14A210,210 0,1,0 210,5.143516556418883e-14Z" style="stroke: rgb(230, 230, 230); stroke-opacity: 1; stroke-width: 1px;"/><path class="xgrid" d="M280,0A280,280 0,1,0 -280,-3.429011037612589e-14A280,280 0,1,0 280,6.858022075225178e-14Z" style="stroke: rgb(230, 230, 230); stroke-opacity: 1; stroke-width: 1px;"/></g><g class="polarsublayer frontplot" transform="translate(150,100)"><g class="barlayer"/><g class="scatterlayer"><g class="trace scatter tracebafd32" style="stroke-miterlimit: 2; opacity: 1;"><g class="fills" clip-path="url(#clip6d3518polar-for-traces)"><g><path class="js-fill" d="M647.5,350L576.35,256.24L572.74,127.26L430.36,155.99L350,42L226.78,52.51L164.38,164.38L91.31,242.85L77,350L78.38,462.51L189.13,510.87L256.24,576.35L350,637L470.55,641.02L538.09,538.09L634.55,467.87L647.5,350Z" style="fill: rgb(255, 205, 86); fill-opacity: 0.35; stroke-width: 0;"/></g></g><g class="errorbars"/><g class="lines"><path class="js-line" d="M647.5,350L576.35,256.24L572.74,127.26L430.36,155.99L350,42L226.78,52.51L164.38,164.38L91.31,242.85L77,350L78.38,462.51L189.13,510.87L256.24,576.35L350,637L470.55,641.02L538.09,538.09L634.55,467.87L647.5,350" clip-path="url(#clip6d3518polar-for-traces)" style="vector-effect: none; fill: none; stroke: rgb(255, 209, 86); stroke-opacity: 1; stroke-width: 2.5px; opacity: 1;"/></g><g class="points"><path class="point" transform="translate(647.5,350)" d="M4,0A4,4 0 1,1 0,-4A4,4 0 0,1 4,0Z" style="opacity: 1; stroke-width: 2px; fill: rgb(255, 209, 86); fill-opacity: 1; stroke: rgb(255, 255, 255); stroke-opacity: 1;"/><path class="point" transform="translate(576.35,256.24)" d="M4,0A4,4 0 1,1 0,-4A4,4 0 0,1 4,0Z" style="opacity: 1; stroke-width: 2px; fill: rgb(255, 209, 86); fill-opacity: 1; stroke: rgb(255, 255, 255); stroke-opacity: 1;"/><path class="point" transform="translate(572.74,127.26)" d="M4,0A4,4 0 1,1 0,-4A4,4 0 0,1 4,0Z" style="opacity: 1; stroke-width: 2px; fill: rgb(255, 209, 86); fill-opacity: 1; stroke: rgb(255, 255, 255); stroke-opacity: 1;"/><path class="point" transform="translate(430.36,155.99)" d="M4,0A4,4 0 1,1 0,-4A4,4 0 0,1 4,0Z" style="opacity: 1; stroke-width: 2px; fill: rgb(255, 209, 86); fill-opacity: 1; stroke: rgb(255, 255, 255); stroke-opacity: 1;"/><path class="point" transform="translate(350,42)" d="M4,0A4,4 0 1,1 0,-4A4,4 0 0,1 4,0Z" style="opacity: 1; stroke-width: 2px; fill: rgb(255, 209, 86); fill-opacity: 1; stroke: rgb(255, 255, 255); stroke-opacity: 1;"/><path class="point" transform="translate(226.78,52.51)" d="M4,0A4,4 0 1,1 0,-4A4,4 0 0,1 4,0Z" style="opacity: 1; stroke-width: 2px; fill: rgb(255, 209, 86); fill-opacity: 1; stroke: rgb(255, 255, 255); stroke-opacity: 1;"/><path class="point" transform="translate(164.38,164.38)" d="M4,0A4,4 0 1,1 0,-4A4,4 0 0,1 4,0Z" style="opacity: 1; stroke-width: 2px; fill: rgb(255, 209, 86); fill-opacity: 1; stroke: rgb(255, 255, 255); stroke-opacity: 1;"/><path class="point" transform="translate(91.31,242.85)" d="M4,0A4,4 0 1,1 0,-4A4,4 0 0,1 4,0Z" style="opacity: 1; stroke-width: 2px; fill: rgb(255, 209, 86); fill-opacity: 1; stroke: rgb(255, 255, 255); stroke-opacity: 1;"/><path class="point" transform="translate(77,350)" d="M4,0A4,4 0 1,1 0,-4A4,4 0 0,1 4,0Z" style="opacity: 1; stroke-width: 2px; fill: rgb(255, 209, 86); fill-opacity: 1; stroke: rgb(255, 255, 255); stroke-opacity: 1;"/><path class="point" transform="translate(78.38,462.51)" d="M4,0A4,4 0 1,1 0,-4A4,4 0 0,1 4,0Z" style="opacity: 1; stroke-width: 2px; fill: rgb(255, 209, 86); fill-opacity: 1; stroke: rgb(255, 255, 255); stroke-opacity: 1;"/><path class="point" transform="translate(189.13,510.87)" d="M4,0A4,4 0 1,1 0,-4A4,4 0 0,1 4,0Z" style="opacity: 1; stroke-width: 2px; fill: rgb(255, 209, 86); fill-opacity: 1; stroke: rgb(255, 255, 255); stroke-opacity: 1;"/><path class="point" transform="translate(256.24,576.35)" d="M4,0A4,4 0 1,1 0,-4A4,4 0 0,1 4,0Z" style="opacity: 1; stroke-width: 2px; fill: rgb(255, 209, 86); fill-opacity: 1; stroke: rgb(255, 255, 255); stroke-opacity: 1;"/><path class="point" transform="translate(350,637)" d="M4,0A4,4 0 1,1 0,-4A4,4 0 0,1 4,0Z" style="opacity: 1; stroke-width: 2px; fill: rgb(255, 209, 86); fill-opacity: 1; stroke: rgb(255, 255, 255); stroke-opacity: 1;"/><path class="point" transform="translate(470.55,641.02)" d="M4,0A4,4 0 1,1 0,-4A4,4 0 0,1 4,0Z" style="opacity: 1; stroke-width: 2px; fill: rgb(255, 209, 86); fill-opacity: 1; stroke: rgb(255, 255, 255); stroke-opacity: 1;"/><path class="point" transform="translate(538.09,538.09)" d="M4,0A4,4 0 1,1 0,-4A4,4 0 0,1 4,0Z" style="opacity: 1; stroke-width: 2px; fill: rgb(255, 209, 86); fill-opacity: 1; stroke: rgb(255, 255, 255); stroke-opacity: 1;"/><path class="point" transform="translate(634.55,467.87)" d="M4,0A4,4 0 1,1 0,-4A4,4 0 0,1 4,0Z" style="opacity: 1; stroke-width: 2px; fill: rgb(255, 209, 86); fill-opacity: 1; stroke: rgb(255, 255, 255); stroke-opacity: 1;"/><path class="point" transform="translate(647.5,350)" d="M4,0A4,4 0 1,1 0,-4A4,4 0 0,1 4,0Z" style="opacity: 1; stroke-width: 2px; fill: rgb(255, 209, 86); fill-opacity: 1; stroke: rgb(255, 255, 255); stroke-opacity: 1;"/></g><g class="text"><g class="textpoint" transform="translate(0,-8.5)"><text x="647.5" y="350" text-anchor="middle" style="font-family: Arial, sans-serif; font-size: 10px; fill: rgb(34, 34, 34); fill-opacity: 1; white-space: pre;">85</text></g><g class="textpoint" transform="translate(0,-8.5)"><text x="576.35" y="256.24" text-anchor="middle" style="font-family: Arial, sans-serif; font-size: 10px; fill: rgb(34, 34, 34); fill-opacity: 1; white-space: pre;">70</text></g><g class="textpoint" transform="translate(0,-8.5)"><text x="572.74" y="127.26" text-anchor="middle" style="font-family: Arial, sans-serif; font-size: 10px; fill: rgb(34, 34, 34); fill-opacity: 1; white-space: pre;">90</text></g><g class="textpoint" transform="translate(0,-8.5)"><text x="430.36" y="155.99" text-anchor="middle" style="font-family: Arial, sans-serif; font-size: 10px; fill: rgb(34, 34, 34); fill-opacity: 1; white-space: pre;">60</text></g><g class="textpoint" transform="translate(0,-8.5)"><text x="350" y="42" text-anchor="middle" style="font-family: Arial, sans-serif; font-size: 10px; fill: rgb(34, 34, 34); fill-opacity: 1; white-space: pre;">88</text></g><g class="textpoint" transform="translate(0,-8.5)"><text x="226.78" y="52.51" text-anchor="middle" style="font-family: Arial, sans-serif; font-size: 10px; fill: rgb(34, 34, 34); fill-opacity: 1; white-space: pre;">92</text></g><g class="textpoint" transform="translate(0,-8.5)"><text x="164.38" y="164.38" text-anchor="middle" style="font-family: Arial, sans-serif; font-size: 10px; fill: rgb(34, 34, 34); fill-opacity: 1; white-space: pre;">75</text></g><g class="textpoint" transform="translate(0,-8.5)"><text x="91.31" y="242.85" text-anchor="middle" style="font-family: Arial, sans-serif; font-size: 10px; fill: rgb(34, 34, 34); fill-opacity: 1; white-space: pre;">80</text></g><g class="textpoint" transform="translate(0,-8.5)"><text x="77" y="350" text-anchor="middle" style="font-family: Arial, sans-serif; font-size: 10px; fill: rgb(34, 34, 34); fill-opacity: 1; white-space: pre;">78</text></g><g class="textpoint" transform="translate(0,-8.5)"><text x="78.38" y="462.51" text-anchor="middle" style="font-family: Arial, sans-serif; font-size: 10px; fill: rgb(34, 34, 34); fill-opacity: 1; white-space: pre;">84</text></g><g class="textpoint" transform="translate(0,-8.5)"><text x="189.13" y="510.87" text-anchor="middle" style="font-family: Arial, sans-serif; font-size: 10px; fill: rgb(34, 34, 34); fill-opacity: 1; white-space: pre;">65</text></g><g class="textpoint" transform="translate(0,-8.5)"><text x="256.24" y="576.35" text-anchor="middle" style="font-family: Arial, sans-serif; font-size: 10px; fill: rgb(34, 34, 34); fill-opacity: 1; white-space: pre;">70</text></g><g class="textpoint" transform="translate(0,-8.5)"><text x="350" y="637" text-anchor="middle" style="font-family: Arial, sans-serif; font-size: 10px; fill: rgb(34, 34, 34); fill-opacity: 1; white-space: pre;">82</text></g><g class="textpoint" transform="translate(0,-8.5)"><text x="470.55" y="641.02" text-anchor="middle" style="font-family: Arial, sans-serif; font-size: 10px; fill: rgb(34, 34, 34); fill-opacity: 1; white-space: pre;">90</text></g><g class="textpoint" transform="translate(0,-8.5)"><text x="538.09" y="538.09" text-anchor="middle" style="font-family: Arial, sans-serif; font-size: 10px; fill: rgb(34, 34, 34); fill-opacity: 1; white-space: pre;">76</text></g><g class="textpoint" transform="translate(0,-8.5)"><text x="634.55" y="467.87" text-anchor="middle" style="font-family: Arial, sans-serif; font-size: 10px; fill: rgb(34, 34, 34); fill-opacity: 1; white-space: pre;">88</text></g><g class="textpoint"/></g></g><g class="trace scatter trace9e178e" style="stroke-miterlimit: 2; opacity: 1;"><g class="fills" clip-path="url(#clip6d3518polar-for-traces)"><g><path class="js-fill" d="M595,350L624.85,236.15L528.19,171.81L454.47,97.78L350,70L258.92,130.12L147.06,147.06L110.72,250.88L105,350L136.58,438.4L132.21,567.79L249.55,592.52L350,630L441.08,569.88L557.89,557.89L582.82,446.44L595,350Z" style="fill: rgb(255, 99, 71); fill-opacity: 0.35; stroke-width: 0;"/></g></g><g class="errorbars"/><g class="lines"><path class="js-line" d="M595,350L624.85,236.15L528.19,171.81L454.47,97.78L350,70L258.92,130.12L147.06,147.06L110.72,250.88L105,350L136.58,438.4L132.21,567.79L249.55,592.52L350,630L441.08,569.88L557.89,557.89L582.82,446.44L595,350" clip-path="url(#clip6d3518polar-for-traces)" style="vector-effect: none; fill: none; stroke: rgb(255, 99, 71); stroke-opacity: 1; stroke-width: 2.5px; opacity: 1;"/></g><g class="points"><path class="point" transform="translate(595,350)" d="M4,0A4,4 0 1,1 0,-4A4,4 0 0,1 4,0Z" style="opacity: 1; stroke-width: 2px; fill: rgb(255, 99, 71); fill-opacity: 1; stroke: rgb(255, 255, 255); stroke-opacity: 1;"/><path class="point" transform="translate(624.85,236.15)" d="M4,0A4,4 0 1,1 0,-4A4,4 0 0,1 4,0Z" style="opacity: 1; stroke-width: 2px; fill: rgb(255, 99, 71); fill-opacity: 1; stroke: rgb(255, 255, 255); stroke-opacity: 1;"/><path class="point" transform="translate(528.19,171.81)" d="M4,0A4,4 0 1,1 0,-4A4,4 0 0,1 4,0Z" style="opacity: 1; stroke-width: 2px; fill: rgb(255, 99, 71); fill-opacity: 1; stroke: rgb(255, 255, 255); stroke-opacity: 1;"/><path class="point" transform="translate(454.47,97.78)" d="M4,0A4,4 0 1,1 0,-4A4,4 0 0,1 4,0Z" style="opacity: 1; stroke-width: 2px; fill: rgb(255, 99, 71); fill-opacity: 1; stroke: rgb(255, 255, 255); stroke-opacity: 1;"/><path class="point" transform="translate(350,70)" d="M4,0A4,4 0 1,1 0,-4A4,4 0 0,1 4,0Z" style="opacity: 1; stroke-width: 2px; fill: rgb(255, 99, 71); fill-opacity: 1; stroke: rgb(255, 255, 255); stroke-opacity: 1;"/><path class="point" transform="translate(258.92,130.12)" d="M4,0A4,4 0 1,1 0,-4A4,4 0 0,1 4,0Z" style="opacity: 1; stroke-width: 2px; fill: rgb(255, 99, 71); fill-opacity: 1; stroke: rgb(255, 255, 255); stroke-opacity: 1;"/><path class="point" transform="translate(147.06,147.06)" d="M4,0A4,4 0 1,1 0,-4A4,4 0 0,1 4,0Z" style="opacity: 1; stroke-width: 2px; fill: rgb(255, 99, 71); fill-opacity: 1; stroke: rgb(255, 255, 255); stroke-opacity: 1;"/><path class="point" transform="translate(110.72,250.88)" d="M4,0A4,4 0 1,1 0,-4A4,4 0 0,1 4,0Z" style="opacity: 1; stroke-width: 2px; fill: rgb(255, 99, 71); fill-opacity: 1; stroke: rgb(255, 255, 255); stroke-opacity: 1;"/><path class="point" transform="translate(105,350)" d="M4,0A4,4 0 1,1 0,-4A4,4 0 0,1 4,0Z" style="opacity: 1; stroke-width: 2px; fill: rgb(255, 99, 71); fill-opacity: 1; stroke: rgb(255, 255, 255); stroke-opacity: 1;"/><path class="point" transform="translate(136.58,438.4)" d="M4,0A4,4 0 1,1 0,-4A4,4 0 0,1 4,0Z" style="opacity: 1; stroke-width: 2px; fill: rgb(255, 99, 71); fill-opacity: 1; stroke: rgb(255, 255, 255); stroke-opacity: 1;"/><path class="point" transform="translate(132.21,567.79)" d="M4,0A4,4 0 1,1 0,-4A4,4 0 0,1 4,0Z" style="opacity: 1; stroke-width: 2px; fill: rgb(255, 99, 71); fill-opacity: 1; stroke: rgb(255, 255, 255); stroke-opacity: 1;"/><path class="point" transform="translate(249.55,592.52)" d="M4,0A4,4 0 1,1 0,-4A4,4 0 0,1 4,0Z" style="opacity: 1; stroke-width: 2px; fill: rgb(255, 99, 71); fill-opacity: 1; stroke: rgb(255, 255, 255); stroke-opacity: 1;"/><path class="point" transform="translate(350,630)" d="M4,0A4,4 0 1,1 0,-4A4,4 0 0,1 4,0Z" style="opacity: 1; stroke-width: 2px; fill: rgb(255, 99, 71); fill-opacity: 1; stroke: rgb(255, 255, 255); stroke-opacity: 1;"/><path class="point" transform="translate(441.08,569.88)" d="M4,0A4,4 0 1,1 0,-4A4,4 0 0,1 4,0Z" style="opacity: 1; stroke-width: 2px; fill: rgb(255, 99, 71); fill-opacity: 1; stroke: rgb(255, 255, 255); stroke-opacity: 1;"/><path class="point" transform="translate(557.89,557.89)" d="M4,0A4,4 0 1,1 0,-4A4,4 0 0,1 4,0Z" style="opacity: 1; stroke-width: 2px; fill: rgb(255, 99, 71); fill-opacity: 1; stroke: rgb(255, 255, 255); stroke-opacity: 1;"/><path class="point" transform="translate(582.82,446.44)" d="M4,0A4,4 0 1,1 0,-4A4,4 0 0,1 4,0Z" style="opacity: 1; stroke-width: 2px; fill: rgb(255, 99, 71); fill-opacity: 1; stroke: rgb(255, 255, 255); stroke-opacity: 1;"/><path class="point" transform="translate(595,350)" d="M4,0A4,4 0 1,1 0,-4A4,4 0 0,1 4,0Z" style="opacity: 1; stroke-width: 2px; fill: rgb(255, 99, 71); fill-opacity: 1; stroke: rgb(255, 255, 255); stroke-opacity: 1;"/></g><g class="text"><g class="textpoint" transform="translate(0,-8.5)"><text x="595" y="350" text-anchor="middle" style="font-family: Arial, sans-serif; font-size: 10px; fill: rgb(34, 34, 34); fill-opacity: 1; white-space: pre;">70</text></g><g class="textpoint" transform="translate(0,-8.5)"><text x="624.85" y="236.15" text-anchor="middle" style="font-family: Arial, sans-serif; font-size: 10px; fill: rgb(34, 34, 34); fill-opacity: 1; white-space: pre;">85</text></g><g class="textpoint" transform="translate(0,-8.5)"><text x="528.19" y="171.81" text-anchor="middle" style="font-family: Arial, sans-serif; font-size: 10px; fill: rgb(34, 34, 34); fill-opacity: 1; white-space: pre;">72</text></g><g class="textpoint" transform="translate(0,-8.5)"><text x="454.47" y="97.78" text-anchor="middle" style="font-family: Arial, sans-serif; font-size: 10px; fill: rgb(34, 34, 34); fill-opacity: 1; white-space: pre;">78</text></g><g class="textpoint" transform="translate(0,-8.5)"><text x="350" y="70" text-anchor="middle" style="font-family: Arial, sans-serif; font-size: 10px; fill: rgb(34, 34, 34); fill-opacity: 1; white-space: pre;">80</text></g><g class="textpoint" transform="translate(0,-8.5)"><text x="258.92" y="130.12" text-anchor="middle" style="font-family: Arial, sans-serif; font-size: 10px; fill: rgb(34, 34, 34); fill-opacity: 1; white-space: pre;">68</text></g><g class="textpoint" transform="translate(0,-8.5)"><text x="147.06" y="147.06" text-anchor="middle" style="font-family: Arial, sans-serif; font-size: 10px; fill: rgb(34, 34, 34); fill-opacity: 1; white-space: pre;">82</text></g><g class="textpoint" transform="translate(0,-8.5)"><text x="110.72" y="250.88" text-anchor="middle" style="font-family: Arial, sans-serif; font-size: 10px; fill: rgb(34, 34, 34); fill-opacity: 1; white-space: pre;">74</text></g><g class="textpoint" transform="translate(0,-8.5)"><text x="105" y="350" text-anchor="middle" style="font-family: Arial, sans-serif; font-size: 10px; fill: rgb(34, 34, 34); fill-opacity: 1; white-space: pre;">70</text></g><g class="textpoint" transform="translate(0,-8.5)"><text x="136.58" y="438.4" text-anchor="middle" style="font-family: Arial, sans-serif; font-size: 10px; fill: rgb(34, 34, 34); fill-opacity: 1; white-space: pre;">66</text></g><g class="textpoint" transform="translate(0,-8.5)"><text x="132.21" y="567.79" text-anchor="middle" style="font-family: Arial, sans-serif; font-size: 10px; fill: rgb(34, 34, 34); fill-opacity: 1; white-space: pre;">88</text></g><g class="textpoint" transform="translate(0,-8.5)"><text x="249.55" y="592.52" text-anchor="middle" style="font-family: Arial, sans-serif; font-size: 10px; fill: rgb(34, 34, 34); fill-opacity: 1; white-space: pre;">75</text></g><g class="textpoint" transform="translate(0,-8.5)"><text x="350" y="630" text-anchor="middle" style="font-family: Arial, sans-serif; font-size: 10px; fill: rgb(34, 34, 34); fill-opacity: 1; white-space: pre;">80</text></g><g class="textpoint" transform="translate(0,-8.5)"><text x="441.08" y="569.88" text-anchor="middle" style="font-family: Arial, sans-serif; font-size: 10px; fill: rgb(34, 34, 34); fill-opacity: 1; white-space: pre;">68</text></g><g class="textpoint" transform="translate(0,-8.5)"><text x="557.89" y="557.89" text-anchor="middle" style="font-family: Arial, sans-serif; font-size: 10px; fill: rgb(34, 34, 34); fill-opacity: 1; white-space: pre;">84</text></g><g class="textpoint" transform="translate(0,-8.5)"><text x="582.82" y="446.44" text-anchor="middle" style="font-family: Arial, sans-serif; font-size: 10px; fill: rgb(34, 34, 34); fill-opacity: 1; white-space: pre;">72</text></g><g class="textpoint"/></g></g><g class="trace scatter traceaccc25" style="stroke-miterlimit: 2; opacity: 1;"><g class="fills" clip-path="url(#clip6d3518polar-for-traces)"><g><path class="js-fill" d="M560,350L560.18,262.94L523.24,176.76L463.85,75.15L350,112L250.88,110.72L152.01,152.01L71.91,234.81L42,350L117.18,446.44L201.51,498.49L240.17,615.15L350,595L451.79,595.75L518.29,518.29L556.95,435.72L560,350Z" style="fill: rgb(54, 162, 235); fill-opacity: 0.35; stroke-width: 0;"/></g></g><g class="errorbars"/><g class="lines"><path class="js-line" d="M560,350L560.18,262.94L523.24,176.76L463.85,75.15L350,112L250.88,110.72L152.01,152.01L71.91,234.81L42,350L117.18,446.44L201.51,498.49L240.17,615.15L350,595L451.79,595.75L518.29,518.29L556.95,435.72L560,350" clip-path="url(#clip6d3518polar-for-traces)" style="vector-effect: none; fill: none; stroke: rgb(54, 162, 235); stroke-opacity: 1; stroke-width: 2.5px; opacity: 1;"/></g><g class="points"><path class="point" transform="translate(560,350)" d="M4,0A4,4 0 1,1 0,-4A4,4 0 0,1 4,0Z" style="opacity: 1; stroke-width: 2px; fill: rgb(54, 162, 235); fill-opacity: 1; stroke: rgb(255, 255, 255); stroke-opacity: 1;"/><path class="point" transform="translate(560.18,262.94)" d="M4,0A4,4 0 1,1 0,-4A4,4 0 0,1 4,0Z" style="opacity: 1; stroke-width: 2px; fill: rgb(54, 162, 235); fill-opacity: 1; stroke: rgb(255, 255, 255); stroke-opacity: 1;"/><path class="point" transform="translate(523.24,176.76)" d="M4,0A4,4 0 1,1 0,-4A4,4 0 0,1 4,0Z" style="opacity: 1; stroke-width: 2px; fill: rgb(54, 162, 235); fill-opacity: 1; stroke: rgb(255, 255, 255); stroke-opacity: 1;"/><path class="point" transform="translate(463.85,75.15)" d="M4,0A4,4 0 1,1 0,-4A4,4 0 0,1 4,0Z" style="opacity: 1; stroke-width: 2px; fill: rgb(54, 162, 235); fill-opacity: 1; stroke: rgb(255, 255, 255); stroke-opacity: 1;"/><path class="point" transform="translate(350,112)" d="M4,0A4,4 0 1,1 0,-4A4,4 0 0,1 4,0Z" style="opacity: 1; stroke-width: 2px; fill: rgb(54, 162, 235); fill-opacity: 1; stroke: rgb(255, 255, 255); stroke-opacity: 1;"/><path class="point" transform="translate(250.88,110.72)" d="M4,0A4,4 0 1,1 0,-4A4,4 0 0,1 4,0Z" style="opacity: 1; stroke-width: 2px; fill: rgb(54, 162, 235); fill-opacity: 1; stroke: rgb(255, 255, 255); stroke-opacity: 1;"/><path class="point" transform="translate(152.01,152.01)" d="M4,0A4,4 0 1,1 0,-4A4,4 0 0,1 4,0Z" style="opacity: 1; stroke-width: 2px; fill: rgb(54, 162, 235); fill-opacity: 1; stroke: rgb(255, 255, 255); stroke-opacity: 1;"/><path class="point" transform="translate(71.91,234.81)" d="M4,0A4,4 0 1,1 0,-4A4,4 0 0,1 4,0Z" style="opacity: 1; stroke-width: 2px; fill: rgb(54, 162, 235); fill-opacity: 1; stroke: rgb(255, 255, 255); stroke-opacity: 1;"/><path class="point" transform="translate(42,350)" d="M4,0A4,4 0 1,1 0,-4A4,4 0 0,1 4,0Z" style="opacity: 1; stroke-width: 2px; fill: rgb(54, 162, 235); fill-opacity: 1; stroke: rgb(255, 255, 255); stroke-opacity: 1;"/><path class="point" transform="translate(117.18,446.44)" d="M4,0A4,4 0 1,1 0,-4A4,4 0 0,1 4,0Z" style="opacity: 1; stroke-width: 2px; fill: rgb(54, 162, 235); fill-opacity: 1; stroke: rgb(255, 255, 255); stroke-opacity: 1;"/><path class="point" transform="translate(201.51,498.49)" d="M4,0A4,4 0 1,1 0,-4A4,4 0 0,1 4,0Z" style="opacity: 1; stroke-width: 2px; fill: rgb(54, 162, 235); fill-opacity: 1; stroke: rgb(255, 255, 255); stroke-opacity: 1;"/><path class="point" transform="translate(240.17,615.15)" d="M4,0A4,4 0 1,1 0,-4A4,4 0 0,1 4,0Z" style="opacity: 1; stroke-width: 2px; fill: rgb(54, 162, 235); fill-opacity: 1; stroke: rgb(255, 255, 255); stroke-opacity: 1;"/><path class="point" transform="translate(350,595)" d="M4,0A4,4 0 1,1 0,-4A4,4 0 0,1 4,0Z" style="opacity: 1; stroke-width: 2px; fill: rgb(54, 162, 235); fill-opacity: 1; stroke: rgb(255, 255, 255); stroke-opacity: 1;"/><path class="point" transform="translate(451.79,595.75)" d="M4,0A4,4 0 1,1 0,-4A4,4 0 0,1 4,0Z" style="opacity: 1; stroke-width: 2px; fill: rgb(54, 162, 235); fill-opacity: 1; stroke: rgb(255, 255, 255); stroke-opacity: 1;"/><path class="point" transform="translate(518.29,518.29)" d="M4,0A4,4 0 1,1 0,-4A4,4 0 0,1 4,0Z" style="opacity: 1; stroke-width: 2px; fill: rgb(54, 162, 235); fill-opacity: 1; stroke: rgb(255, 255, 255); stroke-opacity: 1;"/><path class="point" transform="translate(556.95,435.72)" d="M4,0A4,4 0 1,1 0,-4A4,4 0 0,1 4,0Z" style="opacity: 1; stroke-width: 2px; fill: rgb(54, 162, 235); fill-opacity: 1; stroke: rgb(255, 255, 255); stroke-opacity: 1;"/><path class="point" transform="translate(560,350)" d="M4,0A4,4 0 1,1 0,-4A4,4 0 0,1 4,0Z" style="opacity: 1; stroke-width: 2px; fill: rgb(54, 162, 235); fill-opacity: 1; stroke: rgb(255, 255, 255); stroke-opacity: 1;"/></g><g class="text"><g class="textpoint" transform="translate(0,-8.5)"><text x="560" y="350" text-anchor="middle" style="font-family: Arial, sans-serif; font-size: 10px; fill: rgb(34, 34, 34); fill-opacity: 1; white-space: pre;">60</text></g><g class="textpoint" transform="translate(0,-8.5)"><text x="560.18" y="262.94" text-anchor="middle" style="font-family: Arial, sans-serif; font-size: 10px; fill: rgb(34, 34, 34); fill-opacity: 1; white-space: pre;">65</text></g><g class="textpoint" transform="translate(0,-8.5)"><text x="523.24" y="176.76" text-anchor="middle" style="font-family: Arial, sans-serif; font-size: 10px; fill: rgb(34, 34, 34); fill-opacity: 1; white-space: pre;">70</text></g><g class="textpoint" transform="translate(0,-8.5)"><text x="463.85" y="75.15" text-anchor="middle" style="font-family: Arial, sans-serif; font-size: 10px; fill: rgb(34, 34, 34); fill-opacity: 1; white-space: pre;">85</text></g><g class="textpoint" transform="translate(0,-8.5)"><text x="350" y="112" text-anchor="middle" style="font-family: Arial, sans-serif; font-size: 10px; fill: rgb(34, 34, 34); fill-opacity: 1; white-space: pre;">68</text></g><g class="textpoint" transform="translate(0,-8.5)"><text x="250.88" y="110.72" text-anchor="middle" style="font-family: Arial, sans-serif; font-size: 10px; fill: rgb(34, 34, 34); fill-opacity: 1; white-space: pre;">74</text></g><g class="textpoint" transform="translate(0,-8.5)"><text x="152.01" y="152.01" text-anchor="middle" style="font-family: Arial, sans-serif; font-size: 10px; fill: rgb(34, 34, 34); fill-opacity: 1; white-space: pre;">80</text></g><g class="textpoint" transform="translate(0,-8.5)"><text x="71.91" y="234.81" text-anchor="middle" style="font-family: Arial, sans-serif; font-size: 10px; fill: rgb(34, 34, 34); fill-opacity: 1; white-space: pre;">86</text></g><g class="textpoint" transform="translate(0,-8.5)"><text x="42" y="350" text-anchor="middle" style="font-family: Arial, sans-serif; font-size: 10px; fill: rgb(34, 34, 34); fill-opacity: 1; white-space: pre;">88</text></g><g class="textpoint" transform="translate(0,-8.5)"><text x="117.18" y="446.44" text-anchor="middle" style="font-family: Arial, sans-serif; font-size: 10px; fill: rgb(34, 34, 34); fill-opacity: 1; white-space: pre;">72</text></g><g class="textpoint" transform="translate(0,-8.5)"><text x="201.51" y="498.49" text-anchor="middle" style="font-family: Arial, sans-serif; font-size: 10px; fill: rgb(34, 34, 34); fill-opacity: 1; white-space: pre;">60</text></g><g class="textpoint" transform="translate(0,-8.5)"><text x="240.17" y="615.15" text-anchor="middle" style="font-family: Arial, sans-serif; font-size: 10px; fill: rgb(34, 34, 34); fill-opacity: 1; white-space: pre;">82</text></g><g class="textpoint" transform="translate(0,-8.5)"><text x="350" y="595" text-anchor="middle" style="font-family: Arial, sans-serif; font-size: 10px; fill: rgb(34, 34, 34); fill-opacity: 1; white-space: pre;">70</text></g><g class="textpoint" transform="translate(0,-8.5)"><text x="451.79" y="595.75" text-anchor="middle" style="font-family: Arial, sans-serif; font-size: 10px; fill: rgb(34, 34, 34); fill-opacity: 1; white-space: pre;">76</text></g><g class="textpoint" transform="translate(0,-8.5)"><text x="518.29" y="518.29" text-anchor="middle" style="font-family: Arial, sans-serif; font-size: 10px; fill: rgb(34, 34, 34); fill-opacity: 1; white-space: pre;">68</text></g><g class="textpoint" transform="translate(0,-8.5)"><text x="556.95" y="435.72" text-anchor="middle" style="font-family: Arial, sans-serif; font-size: 10px; fill: rgb(34, 34, 34); fill-opacity: 1; white-space: pre;">64</text></g><g class="textpoint"/></g></g><g class="trace scatter trace1f2b3e" style="stroke-miterlimit: 2; opacity: 1;"><g class="fills" clip-path="url(#clip6d3518polar-for-traces)"><g><path class="js-fill" d="M623,350L582.82,253.56L538.09,161.91L443.76,123.65L350,63L242.85,91.31L181.71,181.71L136.58,261.6L91,350L65.45,467.87L176.76,523.24L258.92,569.88L350,616L446.44,582.82L547.99,547.99L628.09,465.19L623,350Z" style="fill: rgb(75, 192, 192); fill-opacity: 0.35; stroke-width: 0;"/></g></g><g class="errorbars"/><g class="lines"><path class="js-line" d="M623,350L582.82,253.56L538.09,161.91L443.76,123.65L350,63L242.85,91.31L181.71,181.71L136.58,261.6L91,350L65.45,467.87L176.76,523.24L258.92,569.88L350,616L446.44,582.82L547.99,547.99L628.09,465.19L623,350" clip-path="url(#clip6d3518polar-for-traces)" style="vector-effect: none; fill: none; stroke: rgb(75, 192, 192); stroke-opacity: 1; stroke-width: 2.5px; opacity: 1;"/></g><g class="points"><path class="point" transform="translate(623,350)" d="M4,0A4,4 0 1,1 0,-4A4,4 0 0,1 4,0Z" style="opacity: 1; stroke-width: 2px; fill: rgb(75, 192, 192); fill-opacity: 1; stroke: rgb(255, 255, 255); stroke-opacity: 1;"/><path class="point" transform="translate(582.82,253.56)" d="M4,0A4,4 0 1,1 0,-4A4,4 0 0,1 4,0Z" style="opacity: 1; stroke-width: 2px; fill: rgb(75, 192, 192); fill-opacity: 1; stroke: rgb(255, 255, 255); stroke-opacity: 1;"/><path class="point" transform="translate(538.09,161.91)" d="M4,0A4,4 0 1,1 0,-4A4,4 0 0,1 4,0Z" style="opacity: 1; stroke-width: 2px; fill: rgb(75, 192, 192); fill-opacity: 1; stroke: rgb(255, 255, 255); stroke-opacity: 1;"/><path class="point" transform="translate(443.76,123.65)" d="M4,0A4,4 0 1,1 0,-4A4,4 0 0,1 4,0Z" style="opacity: 1; stroke-width: 2px; fill: rgb(75, 192, 192); fill-opacity: 1; stroke: rgb(255, 255, 255); stroke-opacity: 1;"/><path class="point" transform="translate(350,63)" d="M4,0A4,4 0 1,1 0,-4A4,4 0 0,1 4,0Z" style="opacity: 1; stroke-width: 2px; fill: rgb(75, 192, 192); fill-opacity: 1; stroke: rgb(255, 255, 255); stroke-opacity: 1;"/><path class="point" transform="translate(242.85,91.31)" d="M4,0A4,4 0 1,1 0,-4A4,4 0 0,1 4,0Z" style="opacity: 1; stroke-width: 2px; fill: rgb(75, 192, 192); fill-opacity: 1; stroke: rgb(255, 255, 255); stroke-opacity: 1;"/><path class="point" transform="translate(181.71,181.71)" d="M4,0A4,4 0 1,1 0,-4A4,4 0 0,1 4,0Z" style="opacity: 1; stroke-width: 2px; fill: rgb(75, 192, 192); fill-opacity: 1; stroke: rgb(255, 255, 255); stroke-opacity: 1;"/><path class="point" transform="translate(136.58,261.6)" d="M4,0A4,4 0 1,1 0,-4A4,4 0 0,1 4,0Z" style="opacity: 1; stroke-width: 2px; fill: rgb(75, 192, 192); fill-opacity: 1; stroke: rgb(255, 255, 255); stroke-opacity: 1;"/><path class="point" transform="translate(91,350)" d="M4,0A4,4 0 1,1 0,-4A4,4 0 0,1 4,0Z" style="opacity: 1; stroke-width: 2px; fill: rgb(75, 192, 192); fill-opacity: 1; stroke: rgb(255, 255, 255); stroke-opacity: 1;"/><path class="point" transform="translate(65.45,467.87)" d="M4,0A4,4 0 1,1 0,-4A4,4 0 0,1 4,0Z" style="opacity: 1; stroke-width: 2px; fill: rgb(75, 192, 192); fill-opacity: 1; stroke: rgb(255, 255, 255); stroke-opacity: 1;"/><path class="point" transform="translate(176.76,523.24)" d="M4,0A4,4 0 1,1 0,-4A4,4 0 0,1 4,0Z" style="opacity: 1; stroke-width: 2px; fill: rgb(75, 192, 192); fill-opacity: 1; stroke: rgb(255, 255, 255); stroke-opacity: 1;"/><path class="point" transform="translate(258.92,569.88)" d="M4,0A4,4 0 1,1 0,-4A4,4 0 0,1 4,0Z" style="opacity: 1; stroke-width: 2px; fill: rgb(75, 192, 192); fill-opacity: 1; stroke: rgb(255, 255, 255); stroke-opacity: 1;"/><path class="point" transform="translate(350,616)" d="M4,0A4,4 0 1,1 0,-4A4,4 0 0,1 4,0Z" style="opacity: 1; stroke-width: 2px; fill: rgb(75, 192, 192); fill-opacity: 1; stroke: rgb(255, 255, 255); stroke-opacity: 1;"/><path class="point" transform="translate(446.44,582.82)" d="M4,0A4,4 0 1,1 0,-4A4,4 0 0,1 4,0Z" style="opacity: 1; stroke-width: 2px; fill: rgb(75, 192, 192); fill-opacity: 1; stroke: rgb(255, 255, 255); stroke-opacity: 1;"/><path class="point" transform="translate(547.99,547.99)" d="M4,0A4,4 0 1,1 0,-4A4,4 0 0,1 4,0Z" style="opacity: 1; stroke-width: 2px; fill: rgb(75, 192, 192); fill-opacity: 1; stroke: rgb(255, 255, 255); stroke-opacity: 1;"/><path class="point" transform="translate(628.09,465.19)" d="M4,0A4,4 0 1,1 0,-4A4,4 0 0,1 4,0Z" style="opacity: 1; stroke-width: 2px; fill: rgb(75, 192, 192); fill-opacity: 1; stroke: rgb(255, 255, 255); stroke-opacity: 1;"/><path class="point" transform="translate(623,350)" d="M4,0A4,4 0 1,1 0,-4A4,4 0 0,1 4,0Z" style="opacity: 1; stroke-width: 2px; fill: rgb(75, 192, 192); fill-opacity: 1; stroke: rgb(255, 255, 255); stroke-opacity: 1;"/></g><g class="text"><g class="textpoint" transform="translate(0,-8.5)"><text x="623" y="350" text-anchor="middle" style="font-family: Arial, sans-serif; font-size: 10px; fill: rgb(34, 34, 34); fill-opacity: 1; white-space: pre;">78</text></g><g class="textpoint" transform="translate(0,-8.5)"><text x="582.82" y="253.56" text-anchor="middle" style="font-family: Arial, sans-serif; font-size: 10px; fill: rgb(34, 34, 34); fill-opacity: 1; white-space: pre;">72</text></g><g class="textpoint" transform="translate(0,-8.5)"><text x="538.09" y="161.91" text-anchor="middle" style="font-family: Arial, sans-serif; font-size: 10px; fill: rgb(34, 34, 34); fill-opacity: 1; white-space: pre;">76</text></g><g class="textpoint" transform="translate(0,-8.5)"><text x="443.76" y="123.65" text-anchor="middle" style="font-family: Arial, sans-serif; font-size: 10px; fill: rgb(34, 34, 34); fill-opacity: 1; white-space: pre;">70</text></g><g class="textpoint" transform="translate(0,-8.5)"><text x="350" y="63" text-anchor="middle" style="font-family: Arial, sans-serif; font-size: 10px; fill: rgb(34, 34, 34); fill-opacity: 1; white-space: pre;">82</text></g><g class="textpoint" transform="translate(0,-8.5)"><text x="242.85" y="91.31" text-anchor="middle" style="font-family: Arial, sans-serif; font-size: 10px; fill: rgb(34, 34, 34); fill-opacity: 1; white-space: pre;">80</text></g><g class="textpoint" transform="translate(0,-8.5)"><text x="181.71" y="181.71" text-anchor="middle" style="font-family: Arial, sans-serif; font-size: 10px; fill: rgb(34, 34, 34); fill-opacity: 1; white-space: pre;">68</text></g><g class="textpoint" transform="translate(0,-8.5)"><text x="136.58" y="261.6" text-anchor="middle" style="font-family: Arial, sans-serif; font-size: 10px; fill: rgb(34, 34, 34); fill-opacity: 1; white-space: pre;">66</text></g><g class="textpoint" transform="translate(0,-8.5)"><text x="91" y="350" text-anchor="middle" style="font-family: Arial, sans-serif; font-size: 10px; fill: rgb(34, 34, 34); fill-opacity: 1; white-space: pre;">74</text></g><g class="textpoint" transform="translate(0,-8.5)"><text x="65.45" y="467.87" text-anchor="middle" style="font-family: Arial, sans-serif; font-size: 10px; fill: rgb(34, 34, 34); fill-opacity: 1; white-space: pre;">88</text></g><g class="textpoint" transform="translate(0,-8.5)"><text x="176.76" y="523.24" text-anchor="middle" style="font-family: Arial, sans-serif; font-size: 10px; fill: rgb(34, 34, 34); fill-opacity: 1; white-space: pre;">70</text></g><g class="textpoint" transform="translate(0,-8.5)"><text x="258.92" y="569.88" text-anchor="middle" style="font-family: Arial, sans-serif; font-size: 10px; fill: rgb(34, 34, 34); fill-opacity: 1; white-space: pre;">68</text></g><g class="textpoint" transform="translate(0,-8.5)"><text x="350" y="616" text-anchor="middle" style="font-family: Arial, sans-serif; font-size: 10px; fill: rgb(34, 34, 34); fill-opacity: 1; white-space: pre;">76</text></g><g class="textpoint" transform="translate(0,-8.5)"><text x="446.44" y="582.82" text-anchor="middle" style="font-family: Arial, sans-serif; font-size: 10px; fill: rgb(34, 34, 34); fill-opacity: 1; white-space: pre;">72</text></g><g class="textpoint" transform="translate(0,-8.5)"><text x="547.99" y="547.99" text-anchor="middle" style="font-family: Arial, sans-serif; font-size: 10px; fill: rgb(34, 34, 34); fill-opacity: 1; white-space: pre;">80</text></g><g class="textpoint" transform="translate(0,-8.5)"><text x="628.09" y="465.19" text-anchor="middle" style="font-family: Arial, sans-serif; font-size: 10px; fill: rgb(34, 34, 34); fill-opacity: 1; white-space: pre;">86</text></g><g class="textpoint"/></g></g></g></g><g class="polarsublayer angular-line"><path d="M350,0A350,350 0,1,0 -350,-4.2862637970157365e-14A350,350 0,1,0 350,8.572527594031473e-14Z" transform="translate(500,450)" stroke-width="2" style="fill: none; stroke: rgb(230, 230, 230); stroke-opacity: 1;"/></g><g class="polarsublayer radial-line"><line x1="0" y1="0" x2="350" y2="0" transform="translate(500,450)" stroke-width="2" style="fill: none; stroke: rgb(230, 230, 230); stroke-opacity: 1;"/></g><g class="polarsublayer angular-axis"><g class="angularaxistick"><text text-anchor="start" x="3.4000000000000004" y="4.199999999999999" transform="translate(850,450)" style="font-family: Arial, sans-serif; font-size: 12px; fill: rgb(34, 34, 34); fill-opacity: 1; white-space: pre;">Liderança ofensiva</text></g><g class="angularaxistick"><text text-anchor="start" x="3.141190410538375" y="1.6607301288298824" transform="translate(823.3578363789504,316.06079867221854)" style="font-family: Arial, sans-serif; font-size: 12px; fill: rgb(34, 34, 34); fill-opacity: 1; white-space: pre;">Força física</text></g><g class="angularaxistick"><text text-anchor="start" x="2.404163056034262" y="-1.131370849898476" transform="translate(747.4873734152916,202.51262658470839)" style="font-family: Arial, sans-serif; font-size: 12px; fill: rgb(34, 34, 34); fill-opacity: 1; white-space: pre;">Impulsão</text></g><g class="angularaxistick"><text text-anchor="start" x="1.3011236700413056" y="-3.751230872632086" transform="translate(633.9392013277815,126.64216362104963)" style="font-family: Arial, sans-serif; font-size: 12px; fill: rgb(34, 34, 34); fill-opacity: 1; white-space: pre;">Resistência anaeróbica</text></g><g class="angularaxistick"><text text-anchor="middle" x="2.0818995585505008e-16" y="-5.800000000000001" transform="translate(500,100)" style="font-family: Arial, sans-serif; font-size: 12px; fill: rgb(34, 34, 34); fill-opacity: 1; white-space: pre;">Explosão</text></g><g class="angularaxistick"><text text-anchor="end" x="-1.3011236700413051" y="-3.751230872632087" transform="translate(366.0607986722186,126.64216362104963)" style="font-family: Arial, sans-serif; font-size: 12px; fill: rgb(34, 34, 34); fill-opacity: 1; white-space: pre;">Finalização</text></g><g class="angularaxistick"><text text-anchor="end" x="-2.4041630560342617" y="-1.1313708498984778" transform="translate(252.51262658470839,202.51262658470836)" style="font-family: Arial, sans-serif; font-size: 12px; fill: rgb(34, 34, 34); fill-opacity: 1; white-space: pre;">Controle orientado</text></g><g class="angularaxistick"><text text-anchor="end" x="-3.141190410538375" y="1.660730128829882" transform="translate(176.64216362104963,316.06079867221854)" style="font-family: Arial, sans-serif; font-size: 12px; fill: rgb(34, 34, 34); fill-opacity: 1; white-space: pre;">Passe de apoio</text></g><g class="angularaxistick"><text text-anchor="end" x="-3.4000000000000004" y="4.199999999999998" transform="translate(150,449.99999999999994)" style="font-family: Arial, sans-serif; font-size: 12px; fill: rgb(34, 34, 34); fill-opacity: 1; white-space: pre;">Movimentação</text></g><g class="angularaxistick"><text text-anchor="end" x="-3.1411904105383757" y="9.773618894969784" transform="translate(176.64216362104958,583.9392013277813)" style="font-family: Arial, sans-serif; font-size: 12px; fill: rgb(34, 34, 34); fill-opacity: 1; white-space: pre;">Ataque à profundidade</text></g><g class="angularaxistick"><text text-anchor="end" x="-2.404163056034262" y="13.859292911256333" transform="translate(252.5126265847083,697.4873734152916)" style="font-family: Arial, sans-serif; font-size: 12px; fill: rgb(34, 34, 34); fill-opacity: 1; white-space: pre;">Fixação de zagueiros</text></g><g class="angularaxistick"><text text-anchor="end" x="-1.3011236700413074" y="15.835015216607193" transform="translate(366.06079867221837,773.3578363789502)" style="font-family: Arial, sans-serif; font-size: 12px; fill: rgb(34, 34, 34); fill-opacity: 1; white-space: pre;">Tentação ofensiva</text></g><g class="angularaxistick"><text text-anchor="middle" x="-6.245698675651502e-16" y="15.4" transform="translate(499.99999999999994,800)" style="font-family: Arial, sans-serif; font-size: 12px; fill: rgb(34, 34, 34); fill-opacity: 1; white-space: pre;">Pressão alta</text></g><g class="angularaxistick"><text text-anchor="start" x="1.3011236700413062" y="15.835015216607193" transform="translate(633.9392013277815,773.3578363789503)" style="font-family: Arial, sans-serif; font-size: 12px; fill: rgb(34, 34, 34); fill-opacity: 1; white-space: pre;">Sangue frio</text></g><g class="angularaxistick"><text text-anchor="start" x="2.4041630560342613" y="13.859292911256333" transform="translate(747.4873734152916,697.4873734152917)" style="font-family: Arial, sans-serif; font-size: 12px; fill: rgb(34, 34, 34); fill-opacity: 1; white-space: pre;">Resiliência</text></g><g class="angularaxistick"><text text-anchor="start" x="3.1411904105383743" y="9.773618894969795" transform="translate(823.3578363789502,583.9392013277816)" style="font-family: Arial, sans-serif; font-size: 12px; fill: rgb(34, 34, 34); fill-opacity: 1; white-space: pre;">Inteligência espacial</text></g></g><g class="polarsublayer radial-axis" transform="translate(500,450)"><g class="xtick"><text text-anchor="middle" x="0" y="14.2" transform="" style="font-family: Arial, sans-serif; font-size: 11px; fill: rgb(102, 102, 102); fill-opacity: 1; white-space: pre;">0</text></g><g class="xtick"><text text-anchor="middle" x="0" y="14.2" transform="translate(70,0)" style="font-family: Arial, sans-serif; font-size: 11px; fill: rgb(102, 102, 102); fill-opacity: 1; white-space: pre;">20</text></g><g class="xtick"><text text-anchor="middle" x="0" y="14.2" transform="translate(140,0)" style="font-family: Arial, sans-serif; font-size: 11px; fill: rgb(102, 102, 102); fill-opacity: 1; white-space: pre;">40</text></g><g class="xtick"><text text-anchor="middle" x="0" y="14.2" transform="translate(210,0)" style="font-family: Arial, sans-serif; font-size: 11px; fill: rgb(102, 102, 102); fill-opacity: 1; white-space: pre;">60</text></g><g class="xtick"><text text-anchor="middle" x="0" y="14.2" transform="translate(280,0)" style="font-family: Arial, sans-serif; font-size: 11px; fill: rgb(102, 102, 102); fill-opacity: 1; white-space: pre;">80</text></g><g class="xtick"><text text-anchor="middle" x="0" y="14.2" transform="translate(350,0)" style="font-family: Arial, sans-serif; font-size: 11px; fill: rgb(102, 102, 102); fill-opacity: 1; white-space: pre;">100</text></g></g></g></g><g class="smithlayer"/><g class="ternarylayer"/><g class="geolayer"/><g class="funnelarealayer"/><g class="pielayer"/><g class="iciclelayer"/><g class="treemaplayer"/><g class="sunburstlayer"/><g class="glimages"/><defs id="topdefs-6d3518"><g class="clips"/><clipPath id="legend6d3518"><rect width="129" height="86" x="1" y="1"/></clipPath></defs><g class="layer-above"><g class="imagelayer"/><g class="shapelayer"/></g><g class="infolayer"><g class="legend" pointer-events="all" transform="translate(769,100)"><rect class="bg" shape-rendering="crispEdges" style="stroke: rgb(230, 230, 230); stroke-opacity: 1; fill: rgb(255, 255, 255); fill-opacity: 0.8; stroke-width: 1px;" width="130" height="87" x="0.5" y="0.5"/><g class="scrollbox" transform="" clip-path="url(#legend6d3518)"><g class="groups"><g class="traces" transform="translate(1,15.5)" style="opacity: 1;"><text class="legendtext" text-anchor="start" x="40" y="4.29" style="font-family: Arial, sans-serif; font-size: 11px; fill: rgb(34, 34, 34); fill-opacity: 1; white-space: pre;">Série Amarela</text><g class="layers" style="opacity: 1;"><g class="legendfill"><path class="js-fill" d="M5,0h30v6h-30z" style="stroke-width: 0; fill: rgb(255, 205, 86); fill-opacity: 0.35;"/></g><g class="legendlines"><path class="js-line" d="M5,0h30" style="fill: none; stroke: rgb(255, 209, 86); stroke-opacity: 1; stroke-width: 2.5px;"/></g><g class="legendsymbols"><g class="legendpoints"><path class="scatterpts" transform="translate(20,0)" d="M4,0A4,4 0 1,1 0,-4A4,4 0 0,1 4,0Z" style="opacity: 1; stroke-width: 2px; fill: rgb(255, 209, 86); fill-opacity: 1; stroke: rgb(255, 255, 255); stroke-opacity: 1;"/></g></g></g><rect class="legendtoggle" x="0" y="-9.5" width="123.625" height="19" style="fill: rgb(0, 0, 0); fill-opacity: 0;"/></g><g class="traces" transform="translate(1,34.5)" style="opacity: 1;"><text class="legendtext" text-anchor="start" x="40" y="4.29" style="font-family: Arial, sans-serif; font-size: 11px; fill: rgb(34, 34, 34); fill-opacity: 1; white-space: pre;">Série Vermelha</text><g class="layers" style="opacity: 1;"><g class="legendfill"><path class="js-fill" d="M5,0h30v6h-30z" style="stroke-width: 0; fill: rgb(255, 99, 71); fill-opacity: 0.35;"/></g><g class="legendlines"><path class="js-line" d="M5,0h30" style="fill: none; stroke: rgb(255, 99, 71); stroke-opacity: 1; stroke-width: 2.5px;"/></g><g class="legendsymbols"><g class="legendpoints"><path class="scatterpts" transform="translate(20,0)" d="M4,0A4,4 0 1,1 0,-4A4,4 0 0,1 4,0Z" style="opacity: 1; stroke-width: 2px; fill: rgb(255, 99, 71); fill-opacity: 1; stroke: rgb(255, 255, 255); stroke-opacity: 1;"/></g></g></g><rect class="legendtoggle" x="0" y="-9.5" width="123.625" height="19" style="fill: rgb(0, 0, 0); fill-opacity: 0;"/></g><g class="traces" transform="translate(1,53.5)" style="opacity: 1;"><text class="legendtext" text-anchor="start" x="40" y="4.29" style="font-family: Arial, sans-serif; font-size: 11px; fill: rgb(34, 34, 34); fill-opacity: 1; white-space: pre;">Série Azul</text><g class="layers" style="opacity: 1;"><g class="legendfill"><path class="js-fill" d="M5,0h30v6h-30z" style="stroke-width: 0; fill: rgb(54, 162, 235); fill-opacity: 0.35;"/></g><g class="legendlines"><path class="js-line" d="M5,0h30" style="fill: none; stroke: rgb(54, 162, 235); stroke-opacity: 1; stroke-width: 2.5px;"/></g><g class="legendsymbols"><g class="legendpoints"><path class="scatterpts" transform="translate(20,0)" d="M4,0A4,4 0 1,1 0,-4A4,4 0 0,1 4,0Z" style="opacity: 1; stroke-width: 2px; fill: rgb(54, 162, 235); fill-opacity: 1; stroke: rgb(255, 255, 255); stroke-opacity: 1;"/></g></g></g><rect class="legendtoggle" x="0" y="-9.5" width="123.625" height="19" style="fill: rgb(0, 0, 0); fill-opacity: 0;"/></g><g class="traces" transform="translate(1,72.5)" style="opacity: 1;"><text class="legendtext" text-anchor="start" x="40" y="4.29" style="font-family: Arial, sans-serif; font-size: 11px; fill: rgb(34, 34, 34); fill-opacity: 1; white-space: pre;">Série Verde</text><g class="layers" style="opacity: 1;"><g class="legendfill"><path class="js-fill" d="M5,0h30v6h-30z" style="stroke-width: 0; fill: rgb(75, 192, 192); fill-opacity: 0.35;"/></g><g class="legendlines"><path class="js-line" d="M5,0h30" style="fill: none; stroke: rgb(75, 192, 192); stroke-opacity: 1; stroke-width: 2.5px;"/></g><g class="legendsymbols"><g class="legendpoints"><path class="scatterpts" transform="translate(20,0)" d="M4,0A4,4 0 1,1 0,-4A4,4 0 0,1 4,0Z" style="opacity: 1; stroke-width: 2px; fill: rgb(75, 192, 192); fill-opacity: 1; stroke: rgb(255, 255, 255); stroke-opacity: 1;"/></g></g></g><rect class="legendtoggle" x="0" y="-9.5" width="123.625" height="19" style="fill: rgb(0, 0, 0); fill-opacity: 0;"/></g></g></g><rect class="scrollbar" rx="20" ry="3" width="0" height="0" style="fill: rgb(128, 139, 164); fill-opacity: 1;" x="0" y="0"/></g><g class="g-gtitle"><text class="gtitle" x="500" y="50" text-anchor="middle" dy="0em" style="opacity: 1; font-family: Arial, sans-serif; font-size: 18px; fill: rgb(34, 34, 34); fill-opacity: 1; white-space: pre;"><tspan style="font-weight:bold">Análise Comparativa de Desempenho - 4 Séries</tspan></text></g><g class="g-polartitle"/></g></svg>